<svg width="62" height="62" viewBox="0 0 62 62" fill="none" xmlns="http://www.w3.org/2000/svg">
<rect width="62" height="62" rx="31" fill="#718CEB"/>
<path d="M37.6666 19.6667H24.3333C20.3333 19.6667 17.6666 21.6667 17.6666 26.3334V35.6667C17.6666 40.3334 20.3333 42.3334 24.3333 42.3334H37.6666C41.6666 42.3334 44.3333 40.3334 44.3333 35.6667V26.3334C44.3333 21.6667 41.6666 19.6667 37.6666 19.6667ZM23.3333 34.3334C23.3333 34.8801 22.88 35.3334 22.3333 35.3334C21.7866 35.3334 21.3333 34.8801 21.3333 34.3334V27.6667C21.3333 27.1201 21.7866 26.6667 22.3333 26.6667C22.88 26.6667 23.3333 27.1201 23.3333 27.6667V34.3334ZM31 35.0001C28.7866 35.0001 27 33.2134 27 31.0001C27 28.7867 28.7866 27.0001 31 27.0001C33.2133 27.0001 35 28.7867 35 31.0001C35 33.2134 33.2133 35.0001 31 35.0001ZM40.6666 34.3334C40.6666 34.8801 40.2133 35.3334 39.6666 35.3334C39.12 35.3334 38.6666 34.8801 38.6666 34.3334V27.6667C38.6666 27.1201 39.12 26.6667 39.6666 26.6667C40.2133 26.6667 40.6666 27.1201 40.6666 27.6667V34.3334Z" fill="white"/>
</svg>
