<svg width="62" height="62" viewBox="0 0 62 62" fill="none" xmlns="http://www.w3.org/2000/svg">
<rect width="62" height="62" rx="31" fill="#FDC965"/>
<path d="M31 17.6667C23.64 17.6667 17.6667 23.6401 17.6667 31.0001C17.6667 38.3601 23.64 44.3334 31 44.3334C38.36 44.3334 44.3334 38.3601 44.3334 31.0001C44.3334 23.6401 38.36 17.6667 31 17.6667ZM26.64 25.2134C27.72 25.2134 28.6134 26.0934 28.6134 27.1867C28.6134 28.2667 27.7334 29.1601 26.64 29.1601C25.56 29.1601 24.6667 28.2801 24.6667 27.1867C24.6667 26.0934 25.5467 25.2134 26.64 25.2134ZM26.8 36.0667C26.6 36.2667 26.3467 36.3601 26.0934 36.3601C25.84 36.3601 25.5867 36.2667 25.3867 36.0667C25 35.6801 25 35.0401 25.3867 34.6534L34.12 25.9201C34.5067 25.5334 35.1467 25.5334 35.5334 25.9201C35.92 26.3067 35.92 26.9467 35.5334 27.3334L26.8 36.0667ZM35.36 36.7867C34.28 36.7867 33.3867 35.9067 33.3867 34.8134C33.3867 33.7334 34.2667 32.8401 35.36 32.8401C36.44 32.8401 37.3334 33.7201 37.3334 34.8134C37.3334 35.9067 36.4534 36.7867 35.36 36.7867Z" fill="white"/>
</svg>
