<svg width="20" height="16" viewBox="0 0 20 16" fill="none" xmlns="http://www.w3.org/2000/svg">
<path d="M9.97709 11.8448C9.65841 11.8448 9.40031 11.5873 9.39978 11.268C9.39927 10.9493 9.65725 10.6907 9.97656 10.6902C11.2461 10.6885 12.2806 9.65384 12.2823 8.3844C12.2828 8.06572 12.541 7.80762 12.8596 7.80762C13.1788 7.80813 13.4369 8.06689 13.4364 8.38545C13.4336 10.2894 11.8823 11.841 9.97785 11.844C9.97785 11.8447 9.9772 11.8447 9.9772 11.8447L9.97709 11.8448Z" fill="#627180"/>
<path d="M7.93172 10.9994C7.78391 10.9994 7.63611 10.9429 7.52361 10.8302C6.86951 10.1761 6.5092 9.30732 6.5092 8.38132C6.5092 6.47106 8.06278 4.91748 9.97304 4.91748C10.899 4.91748 11.7678 5.27779 12.4219 5.93176C12.6477 6.15753 12.6477 6.52299 12.4219 6.74863C12.1962 6.97376 11.8314 6.97376 11.6056 6.74863C11.1698 6.31229 10.5896 6.07209 9.97304 6.07209C8.6995 6.07209 7.66382 7.10778 7.66382 8.38132C7.66382 8.99792 7.90401 9.57806 8.33983 10.0139C8.5656 10.2397 8.5656 10.6045 8.33983 10.8302C8.22784 10.9434 8.07952 10.9994 7.93172 10.9994Z" fill="#627180"/>
<path d="M3.04533 15.8862C2.89752 15.8862 2.74972 15.8296 2.63722 15.717C2.41145 15.4912 2.41145 15.1265 2.63722 14.9007L16.4926 1.0453C16.7184 0.819534 17.0832 0.819534 17.3089 1.0453C17.5347 1.27107 17.5347 1.63587 17.3089 1.86165L3.45357 15.717C3.34094 15.8296 3.19314 15.8862 3.04533 15.8862Z" fill="#627180"/>
<path d="M5.82059 13.0859C5.73051 13.0859 5.63928 13.0651 5.55384 13.02C4.00026 12.2078 2.49412 10.9573 1.07724 9.30348C0.620046 8.76945 0.620046 7.99411 1.07724 7.46009C3.83337 4.24096 6.82689 2.6084 9.97305 2.6084C11.4545 2.6084 12.9294 2.98365 14.3566 3.72372C14.6395 3.87037 14.7498 4.21909 14.6031 4.50193C14.4565 4.78543 14.1078 4.89444 13.8243 4.74845C12.5635 4.09448 11.2681 3.76304 9.97317 3.76304C7.17953 3.76304 4.48117 5.25938 1.95322 8.21127C1.8701 8.3083 1.8701 8.45495 1.95322 8.55251C3.27407 10.0945 4.66488 11.2537 6.08806 11.9979C6.3704 12.1457 6.48007 12.4937 6.33225 12.7772C6.22942 12.9735 6.02852 13.0861 5.82066 13.0861L5.82059 13.0859Z" fill="#627180"/>
<path d="M9.97294 14.1548C9.31768 14.1548 8.6579 14.081 8.01125 13.9355C7.70004 13.8657 7.50493 13.5568 7.5748 13.2456C7.64529 12.9344 7.95404 12.7409 8.26473 12.8091C8.82812 12.9362 9.40312 13.0002 9.97294 13.0002C12.7671 13.0002 15.4649 11.5039 17.9922 8.55199C18.076 8.45496 18.076 8.30831 17.9927 8.21141C17.2359 7.32754 16.449 6.56325 15.653 5.93801C15.4025 5.74111 15.3585 5.37796 15.5559 5.12747C15.7528 4.87696 16.1148 4.83302 16.3665 5.02992C17.2215 5.70194 18.0632 6.51931 18.8691 7.46042C19.3263 7.99444 19.3263 8.76978 18.8686 9.30381C16.1125 12.5227 13.119 14.1548 9.97279 14.1548L9.97294 14.1548Z" fill="#627180"/>
</svg>
