<svg width="18" height="25" viewBox="0 0 18 25" fill="none" xmlns="http://www.w3.org/2000/svg">
<path d="M6.75293 11.167C7.0484 11.167 7.34099 11.1088 7.61397 10.9957C7.88695 10.8826 8.13499 10.7169 8.34392 10.508C8.55285 10.2991 8.71859 10.051 8.83166 9.77803C8.94473 9.50505 9.00293 9.21247 9.00293 8.91699C9.00293 8.62152 8.94473 8.32894 8.83166 8.05595C8.71859 7.78297 8.55285 7.53493 8.34392 7.326C8.13499 7.11707 7.88695 6.95134 7.61397 6.83826C7.34099 6.72519 7.0484 6.66699 6.75293 6.66699C6.15619 6.66699 5.5839 6.90404 5.16194 7.326C4.73998 7.74796 4.50293 8.32026 4.50293 8.91699C4.50293 9.51373 4.73998 10.086 5.16194 10.508C5.5839 10.9299 6.15619 11.167 6.75293 11.167Z" fill="#0F91D2" fill-opacity="0.4"/>
<path d="M18 21.667C18 22.4626 17.6839 23.2257 17.1213 23.7883C16.5587 24.3509 15.7956 24.667 15 24.667H3C2.20435 24.667 1.44129 24.3509 0.87868 23.7883C0.31607 23.2257 0 22.4626 0 21.667V3.66699C0 2.87134 0.31607 2.10828 0.87868 1.54567C1.44129 0.983063 2.20435 0.666992 3 0.666992L11.25 0.666992L18 7.41699V21.667ZM3 2.16699C2.60218 2.16699 2.22064 2.32503 1.93934 2.60633C1.65804 2.88764 1.5 3.26917 1.5 3.66699V18.667L4.836 15.331C4.95422 15.213 5.10843 15.1379 5.27417 15.1176C5.43992 15.0972 5.60773 15.1327 5.751 15.2185L9 17.167L12.2355 12.637C12.2988 12.5485 12.3806 12.4748 12.4753 12.421C12.5699 12.3673 12.6751 12.3348 12.7836 12.3258C12.8921 12.3168 13.0012 12.3315 13.1034 12.3689C13.2056 12.4064 13.2985 12.4656 13.3755 12.5425L16.5 15.667V7.41699H13.5C12.9033 7.41699 12.331 7.17994 11.909 6.75798C11.4871 6.33603 11.25 5.76373 11.25 5.16699V2.16699H3Z" fill="#0F91D2" fill-opacity="0.4"/>
</svg>
