<svg width="62" height="62" viewBox="0 0 62 62" fill="none" xmlns="http://www.w3.org/2000/svg">
<circle cx="31" cy="31" r="31" fill="#F75C03"/>
<path d="M35.3312 38.6817L24.1943 38.6817C24.0793 38.6818 23.9655 38.6592 23.8592 38.6152C23.753 38.5712 23.6564 38.5067 23.5751 38.4254C23.4938 38.3441 23.4293 38.2476 23.3853 38.1413C23.3414 38.0351 23.3188 37.9212 23.3188 37.8062L23.3188 26.6693C23.3188 26.4371 23.4111 26.2144 23.5752 26.0502C23.7394 25.8861 23.9621 25.7938 24.1943 25.7938C24.4265 25.7938 24.6492 25.8861 24.8134 26.0502C24.9776 26.2144 25.0698 26.4371 25.0698 26.6693L25.069 35.6941L37.1874 23.5757C37.3515 23.4116 37.5741 23.3194 37.8061 23.3194C38.0382 23.3194 38.2607 23.4116 38.4248 23.5757C38.5889 23.7398 38.6811 23.9624 38.6811 24.1944C38.6811 24.4265 38.5889 24.6491 38.4248 24.8132L26.3065 36.9315L35.3312 36.9308C35.5634 36.9308 35.7861 37.023 35.9503 37.1872C36.1145 37.3514 36.2067 37.574 36.2067 37.8062C36.2067 38.0384 36.1145 38.2611 35.9503 38.4253C35.7861 38.5895 35.5634 38.6817 35.3312 38.6817Z" fill="white"/>
</svg>
