<svg width="62" height="62" viewBox="0 0 62 62" fill="none" xmlns="http://www.w3.org/2000/svg">
<circle cx="31" cy="31" r="31" fill="#00A760"/>
<path d="M32.3101 43.1516C32.3101 43.3419 32.4721 43.505 32.6611 43.505H35.9551C36.1441 43.505 36.3061 43.3419 36.3061 43.1516V41.3574H32.3101V43.1516Z" fill="white"/>
<path d="M41.8412 30.9459C41.7332 30.7556 41.5442 30.6468 41.3282 30.5925C41.0312 30.5381 40.7612 30.674 40.5722 30.9187L39.1142 32.9847C39.1412 33.0391 39.1682 33.0663 39.1952 33.1206C39.6002 33.6915 39.5462 34.4798 39.0872 34.9963L38.9792 35.1051C38.3852 35.7847 37.7372 36.4371 37.0352 37.008L36.4682 37.4701C36.2792 37.6332 36.0092 37.6061 35.8472 37.4158C35.6852 37.2255 35.7122 36.9536 35.9012 36.7905L36.4682 36.3284C37.1162 35.7847 37.7372 35.1866 38.3042 34.5342L38.4122 34.4255C38.6012 34.208 38.6282 33.8546 38.4662 33.6099C38.3582 33.474 38.2232 33.3653 38.0342 33.3381C37.8722 33.3109 37.6832 33.3381 37.5482 33.4468L34.3622 35.676C34.0112 35.9206 33.7682 36.274 33.6332 36.6818L32.4722 40.4876H36.6302L39.4112 38.775C39.8972 38.476 40.2482 38.0138 40.3832 37.4701L41.9492 31.5983C42.0032 31.3536 41.9762 31.1362 41.8412 30.9459Z" fill="white"/>
<path d="M29.34 36.6818C29.205 36.274 28.962 35.9206 28.611 35.676L25.425 33.4468C25.29 33.3381 25.101 33.3109 24.939 33.3381C24.777 33.3653 24.615 33.474 24.507 33.6099C24.345 33.8546 24.345 34.1808 24.561 34.4255L24.669 34.5342C25.236 35.1866 25.857 35.7847 26.505 36.3284L27.072 36.7905C27.153 36.8721 27.207 36.9808 27.234 37.0895C27.261 37.1983 27.207 37.3342 27.126 37.4158C27.045 37.4973 26.937 37.5517 26.829 37.5789C26.721 37.5789 26.586 37.5517 26.505 37.4701L25.938 37.008C25.236 36.4371 24.588 35.7847 23.994 35.1051L23.886 34.9963C23.427 34.4798 23.373 33.6915 23.778 33.1206C23.805 33.0662 23.832 33.0391 23.886 32.9847L22.428 30.9187C22.266 30.674 21.969 30.5653 21.672 30.5925C21.456 30.6196 21.267 30.7556 21.159 30.9459C21.051 31.1361 20.997 31.3536 21.051 31.5711L22.617 37.4429C22.752 37.9866 23.103 38.4488 23.589 38.7478L26.37 40.4876H30.501L29.34 36.6818Z" fill="white"/>
<path d="M26.6401 43.1516C26.6401 43.3419 26.8021 43.505 26.9911 43.505H30.2851C30.4741 43.505 30.6361 43.3419 30.6361 43.1516V41.3574H26.6401V43.1516Z" fill="white"/>
<path d="M36.3601 29.5592C36.3601 26.868 34.2001 24.666 31.5001 24.666C28.8271 24.666 26.6401 26.8408 26.6401 29.5592C26.6401 32.2505 28.8001 34.4524 31.5001 34.4524C34.1731 34.4524 36.3601 32.2505 36.3601 29.5592ZM31.7971 28.6621C31.8781 28.6621 31.9321 28.7165 31.9321 28.7981V29.2058C31.9321 29.2874 31.8781 29.3417 31.7971 29.3417H30.4201C30.4201 29.4233 30.4201 29.5049 30.4201 29.5592C30.4201 29.6136 30.4201 29.6951 30.4201 29.7767H31.7971C31.8781 29.7767 31.9321 29.8311 31.9321 29.9126V30.3204C31.9321 30.4019 31.8781 30.4563 31.7971 30.4563H30.6361C30.8791 30.8913 31.3111 31.1631 31.7431 31.1631C32.0671 31.1631 32.3641 31.0272 32.6071 30.7825C32.6611 30.7282 32.7421 30.7282 32.7961 30.7825L33.2551 31.1903C33.2821 31.2175 33.3091 31.2447 33.3091 31.299C33.3091 31.3262 33.3091 31.3806 33.2821 31.4078C32.8501 31.8427 32.3101 32.0602 31.7701 32.0602C30.8521 32.0602 30.0421 31.4078 29.6911 30.4563H29.2051C29.1241 30.4563 29.0701 30.4019 29.0701 30.3204V29.9126C29.0701 29.8311 29.1241 29.7767 29.2051 29.7767H29.5561C29.5561 29.6951 29.5561 29.6408 29.5561 29.5592C29.5561 29.4777 29.5561 29.4233 29.5561 29.3417H29.2051C29.1241 29.3417 29.0701 29.2874 29.0701 29.2058V28.7981C29.0701 28.7165 29.1241 28.6621 29.2051 28.6621H29.6911C30.0151 27.7107 30.8521 27.0582 31.7701 27.0582C32.3371 27.0582 32.8501 27.3029 33.2551 27.7107C33.2821 27.7379 33.2821 27.765 33.2821 27.8194C33.2821 27.8466 33.2551 27.901 33.2281 27.9282L32.7691 28.3359C32.7151 28.3903 32.6341 28.3903 32.5801 28.3359C32.3371 28.0913 32.0401 27.9553 31.7161 27.9553C31.2841 27.9553 30.8521 28.2272 30.6091 28.6621H31.7971Z" fill="white"/>
<path d="M30.2314 20.235H30.9064V22.3282C30.9064 22.6544 31.1764 22.9263 31.5004 22.9263C31.8244 22.9263 32.0944 22.6544 32.0944 22.3282V20.235H32.7694C32.9584 20.235 33.1204 20.1263 33.2014 19.9632C33.2824 19.8001 33.2554 19.6098 33.1474 19.4739L31.8784 17.8428C31.6894 17.6253 31.3114 17.6253 31.1494 17.8428L29.8804 19.4739C29.7724 19.6098 29.7454 19.8001 29.8264 19.9632C29.8804 20.1535 30.0424 20.235 30.2314 20.235Z" fill="white"/>
<path d="M36.1983 24.0683L37.4403 22.3557L38.0073 22.7634C38.1423 22.8722 38.3313 22.8722 38.4933 22.7906C38.6553 22.709 38.7363 22.5459 38.7363 22.3557L38.6553 20.2896C38.6553 19.9906 38.3313 19.7731 38.0613 19.8547L36.0903 20.4256C35.9283 20.4799 35.7933 20.6158 35.7663 20.8061C35.7393 20.9964 35.8203 21.1595 35.9553 21.2683L36.5223 21.676L35.2803 23.3887C35.0913 23.6605 35.1453 24.0139 35.4153 24.2042C35.6313 24.3945 36.0093 24.3401 36.1983 24.0683Z" fill="white"/>
<path d="M42.4621 25.5905L40.5181 24.8837C40.3561 24.8293 40.1671 24.8565 40.0321 24.9924C39.8971 25.1283 39.8431 25.3186 39.9241 25.4817L40.1401 26.1342L38.1421 26.7866C37.8451 26.8953 37.6561 27.2215 37.7641 27.5206C37.8721 27.8196 38.1961 28.0099 38.4931 27.9012L40.4911 27.2487L40.7071 27.9012C40.7611 28.0643 40.9231 28.2002 41.0851 28.2274C41.2741 28.2545 41.4361 28.173 41.5441 28.0099L42.7051 26.2973C42.8401 26.0526 42.7321 25.6992 42.4621 25.5905Z" fill="white"/>
<path d="M24.5341 22.8175C24.6961 22.899 24.8851 22.899 25.0201 22.7903L25.5871 22.3825L26.8291 24.0951C27.0181 24.367 27.3961 24.4213 27.6391 24.2311C27.9091 24.0408 27.9631 23.6602 27.7741 23.4155L26.5321 21.7029L27.0991 21.2951C27.2341 21.1864 27.3151 20.9961 27.2881 20.833C27.2611 20.6427 27.1261 20.5068 26.9641 20.4524L24.9931 19.8815C24.7231 19.8 24.3991 20.0175 24.3991 20.3165L24.3181 22.3825C24.2911 22.5456 24.3721 22.7359 24.5341 22.8175Z" fill="white"/>
<path d="M21.9152 28.2274C22.1042 28.2002 22.2392 28.0914 22.2932 27.9012L22.5092 27.2487L24.5072 27.9012C24.8042 28.0099 25.1552 27.8196 25.2362 27.5206C25.3442 27.2215 25.1552 26.8681 24.8582 26.7866L22.8602 26.1342L23.0762 25.4817C23.1302 25.3186 23.0762 25.1283 22.9682 24.9924C22.8332 24.8565 22.6442 24.8293 22.4822 24.8837L20.5382 25.5905C20.2682 25.6992 20.1602 26.0526 20.3222 26.2973L21.4832 28.0099C21.5642 28.173 21.7532 28.2545 21.9152 28.2274Z" fill="white"/>
</svg>
