<svg width="62" height="62" viewBox="0 0 62 62" fill="none" xmlns="http://www.w3.org/2000/svg">
<circle cx="31" cy="31" r="31" fill="#118AB2"/>
<path d="M26.6688 23.3183L37.8057 23.3183C37.9207 23.3182 38.0346 23.3408 38.1408 23.3848C38.247 23.4288 38.3436 23.4933 38.4249 23.5746C38.5062 23.6559 38.5707 23.7524 38.6147 23.8587C38.6586 23.9649 38.6812 24.0788 38.6812 24.1938L38.6812 35.3307C38.6812 35.5629 38.5889 35.7856 38.4248 35.9498C38.2606 36.1139 38.0379 36.2062 37.8057 36.2062C37.5735 36.2062 37.3508 36.1139 37.1866 35.9498C37.0224 35.7856 36.9302 35.5629 36.9302 35.3307L36.931 26.3059L24.8126 38.4243C24.6485 38.5884 24.4259 38.6806 24.1939 38.6806C23.9618 38.6806 23.7393 38.5884 23.5752 38.4243C23.4111 38.2602 23.3189 38.0376 23.3189 37.8056C23.3189 37.5735 23.4111 37.3509 23.5752 37.1869L35.6935 25.0685L26.6688 25.0693C26.4366 25.0693 26.2139 24.977 26.0497 24.8128C25.8855 24.6486 25.7933 24.426 25.7933 24.1938C25.7933 23.9616 25.8855 23.7389 26.0497 23.5747C26.2139 23.4105 26.4366 23.3183 26.6688 23.3183Z" fill="white"/>
</svg>
