<!DOCTYPE svg PUBLIC "-//W3C//DTD SVG 1.1//EN" "http://www.w3.org/Graphics/SVG/1.1/DTD/svg11.dtd">
<!-- Uploaded to: SVG Repo, www.svgrepo.com, Transformed by: SVG Repo Mixer Tools -->
<svg width="800px" height="800px" viewBox="0 -1 12 12" id="meteor-icon-kit__regular-bars-s" fill="none" xmlns="http://www.w3.org/2000/svg">
<g id="SVGRepo_bgCarrier" stroke-width="0"/>
<g id="SVGRepo_tracerCarrier" stroke-linecap="round" stroke-linejoin="round"/>
<g id="SVGRepo_iconCarrier">
<path fill-rule="evenodd" clip-rule="evenodd" d="M0.85714 2C0.38376 2 0 1.55228 0 1C0 0.44772 0.38376 0 0.85714 0H11.1429C11.6162 0 12 0.44772 12 1C12 1.55228 11.6162 2 11.1429 2H0.85714zM0.85714 6C0.38376 6 0 5.5523 0 5C0 4.4477 0.38376 4 0.85714 4H11.1429C11.6162 4 12 4.4477 12 5C12 5.5523 11.6162 6 11.1429 6H0.85714zM0.85714 10C0.38376 10 0 9.5523 0 9C0 8.4477 0.38376 8 0.85714 8H11.1429C11.6162 8 12 8.4477 12 9C12 9.5523 11.6162 10 11.1429 10H0.85714z" fill="#758CA3"/>
</g>
</svg>