<svg width="16" height="16" viewBox="0 0 16 16" fill="none" xmlns="http://www.w3.org/2000/svg">
<path d="M12.465 9.91793L12.4664 9.9201C12.6466 10.216 12.6776 10.5617 12.5588 10.8769C12.4371 11.1999 12.1889 11.4403 11.8706 11.5449L11.8706 11.5449L11.8678 11.5458C10.6276 11.9614 9.32134 12.1666 8.01333 12.1666C6.70534 12.1666 5.39995 11.9614 4.16104 11.5399L4.16003 11.5396C3.78965 11.4144 3.53858 11.1672 3.43738 10.8846L3.43739 10.8846L3.43595 10.8807C3.32724 10.585 3.35764 10.2491 3.5553 9.91736C3.55552 9.91698 3.55575 9.9166 3.55598 9.91622L4.22784 8.80534L4.22789 8.80537L4.23189 8.79852C4.33256 8.62594 4.4132 8.40298 4.46832 8.20027C4.52334 7.99791 4.56666 7.76519 4.56666 7.56659V5.87992C4.56666 4.53229 5.35078 3.36063 6.48935 2.79426L6.62768 2.72545L6.70308 2.5906C6.96262 2.12642 7.45032 1.83325 7.99333 1.83325C8.54729 1.83325 9.02052 2.11699 9.27805 2.57261L9.35563 2.70988L9.49792 2.77781C10.6582 3.3317 11.46 4.51407 11.46 5.87992V7.56659C11.46 7.76519 11.5033 7.99784 11.5582 8.20054C11.6134 8.40442 11.6934 8.62666 11.7918 8.80006L11.7917 8.80014L11.7984 8.81126L12.465 9.91793Z" fill="#0F1B25" stroke="#0F1B25"/>
<path d="M6.84343 13.6187C6.87062 13.6507 6.89908 13.6808 6.92863 13.7085L6.93777 13.7171L6.94647 13.7261C7.02908 13.8117 7.12294 13.8862 7.22478 13.9484C7.08804 13.9401 6.95214 13.9299 6.81737 13.9181L6.84343 13.6187ZM6.84343 13.6187L6.85999 13.4199C7.23999 13.4533 7.62666 13.4733 8.01333 13.4733C8.39333 13.4733 8.77333 13.4533 9.14666 13.4199L6.84343 13.6187Z" fill="#0F1B25" stroke="#0F1B25"/>
</svg>
