<svg width="62" height="62" viewBox="0 0 62 62" fill="none" xmlns="http://www.w3.org/2000/svg">
<rect width="62" height="62" rx="31" fill="#27AE75"/>
<path d="M28.6667 28.3733C28.6667 29.0933 28.8667 29.1999 29.32 29.3599L30 29.5999V27.3333H29.6C29.0933 27.3333 28.6667 27.7999 28.6667 28.3733Z" fill="white"/>
<path d="M32 34.6666H32.4C32.92 34.6666 33.3333 34.1999 33.3333 33.6266C33.3333 32.9066 33.1333 32.7999 32.68 32.6399L32 32.3999V34.6666Z" fill="white"/>
<path d="M41.1067 22.3067L38.3733 25.0401C38.1733 25.2401 37.92 25.3334 37.6667 25.3334C37.4133 25.3334 37.16 25.2401 36.96 25.0401C36.5733 24.6534 36.5733 24.0134 36.96 23.6267L39.6933 20.8934C37.3467 18.8934 34.32 17.6667 31 17.6667C23.64 17.6667 17.6667 23.6401 17.6667 31.0001C17.6667 38.3601 23.64 44.3334 31 44.3334C38.36 44.3334 44.3333 38.3601 44.3333 31.0001C44.3333 27.6801 43.1067 24.6534 41.1067 22.3067ZM33.3333 30.7601C34.1867 31.0667 35.3333 31.6801 35.3333 33.6401C35.3333 35.3067 34.0133 36.6801 32.4 36.6801H32V37.0134C32 37.5601 31.5467 38.0134 31 38.0134C30.4533 38.0134 30 37.5601 30 37.0134V36.6801H29.8933C28.12 36.6801 26.6667 35.1867 26.6667 33.3467C26.6667 32.7867 27.12 32.3334 27.6667 32.3334C28.2133 32.3334 28.6667 32.7867 28.6667 33.3334C28.6667 34.0667 29.2133 34.6667 29.8933 34.6667H30V31.7067L28.6667 31.2401C27.8133 30.9334 26.6667 30.3201 26.6667 28.3601C26.6667 26.6934 27.9867 25.3201 29.6 25.3201H30V25.0001C30 24.4534 30.4533 24.0001 31 24.0001C31.5467 24.0001 32 24.4534 32 25.0001V25.3334H32.1067C33.88 25.3334 35.3333 26.8267 35.3333 28.6667C35.3333 29.2134 34.88 29.6667 34.3333 29.6667C33.7867 29.6667 33.3333 29.2134 33.3333 28.6667C33.3333 27.9334 32.7867 27.3334 32.1067 27.3334H32V30.2934L33.3333 30.7601Z" fill="white"/>
<path d="M45.2533 17.2801C45.1467 17.0401 44.96 16.8401 44.7067 16.7334C44.5867 16.6934 44.4667 16.6667 44.3333 16.6667H39C38.4533 16.6667 38 17.1201 38 17.6667C38 18.2134 38.4533 18.6667 39 18.6667H41.92L39.6933 20.8934C40.2 21.3334 40.6667 21.8001 41.1067 22.3067L43.3333 20.0801V23.0001C43.3333 23.5467 43.7867 24.0001 44.3333 24.0001C44.88 24.0001 45.3333 23.5467 45.3333 23.0001V17.6667C45.3333 17.5334 45.3067 17.4134 45.2533 17.2801Z" fill="white"/>
</svg>
