<svg width="47" height="39" viewBox="0 0 47 39" fill="none" xmlns="http://www.w3.org/2000/svg">
<path d="M32 27.5L24 19.5L16 27.5" stroke="#627180" stroke-width="2" stroke-linecap="round" stroke-linejoin="round"/>
<path d="M24 19.5V37.5" stroke="#718CEB" stroke-width="2" stroke-linecap="round" stroke-linejoin="round"/>
<path d="M40.7799 32.28C42.7306 31.2165 44.2716 29.5337 45.1597 27.4972C46.0477 25.4607 46.2323 23.1864 45.6843 21.0334C45.1363 18.8803 43.8869 16.971 42.1333 15.6069C40.3796 14.2427 38.2216 13.5014 35.9999 13.5H33.4799C32.8745 11.1585 31.7462 8.98464 30.1798 7.14195C28.6134 5.29927 26.6496 3.83567 24.4361 2.86118C22.2226 1.8867 19.817 1.42669 17.4002 1.51573C14.9833 1.60478 12.6181 2.24057 10.4823 3.3753C8.34649 4.51003 6.49574 6.11417 5.06916 8.06713C3.64259 10.0201 2.6773 12.271 2.24588 14.6508C1.81446 17.0305 1.92813 19.477 2.57835 21.8065C3.22856 24.136 4.3984 26.2877 5.99992 28.1" stroke="#627180" stroke-width="2" stroke-linecap="round" stroke-linejoin="round"/>
<path d="M32 27.5L24 19.5L16 27.5" stroke="#718CEB" stroke-width="2" stroke-linecap="round" stroke-linejoin="round"/>
</svg>
